<?xml version="1.0" standalone="no"?>
<!DOCTYPE svg PUBLIC "-//W3C//DTD SVG 20010904//EN"
 "http://www.w3.org/TR/2001/REC-SVG-20010904/DTD/svg10.dtd">
<svg version="1.0" xmlns="http://www.w3.org/2000/svg"
 width="500.000000pt" height="500.000000pt" viewBox="0 0 500.000000 500.000000"
 preserveAspectRatio="xMidYMid meet">
<metadata>
Created by potrace 1.15, written by Peter Selinger 2001-2017
</metadata>
<g transform="translate(0.000000,500.000000) scale(0.100000,-0.100000)"
fill="#006994" stroke="none">
<path d="M2460 4831 c-8 -5 -17 -8 -20 -6 -4 2 -23 -13 -42 -33 -30 -32 -73
-125 -93 -202 -2 -8 -26 -72 -53 -142 -27 -71 -48 -128 -45 -128 2 0 -1 -10
-8 -21 -6 -12 -24 -57 -40 -100 -16 -44 -43 -116 -60 -161 -17 -46 -32 -90
-34 -98 -2 -8 -11 -33 -21 -55 -19 -46 -75 -195 -78 -210 -1 -5 -11 -35 -23
-65 -63 -165 -75 -196 -78 -210 -2 -8 -12 -36 -24 -62 -11 -27 -18 -48 -16
-48 2 0 -5 -21 -17 -46 -20 -46 -76 -196 -83 -224 -3 -8 -25 -69 -50 -135 -26
-66 -48 -127 -50 -135 -2 -8 -12 -36 -24 -62 -11 -27 -18 -48 -16 -48 2 0 -5
-21 -17 -46 -20 -46 -76 -196 -83 -224 -3 -8 -25 -69 -51 -135 -25 -66 -47
-124 -48 -130 -1 -5 -11 -35 -23 -65 -63 -165 -75 -196 -78 -210 -2 -8 -12
-36 -24 -62 -11 -27 -18 -48 -16 -48 2 0 -5 -21 -17 -46 -20 -46 -76 -196 -83
-224 -3 -8 -25 -69 -50 -135 -26 -66 -48 -127 -50 -135 -2 -8 -12 -36 -24 -62
-11 -27 -18 -48 -16 -48 2 0 -5 -21 -17 -46 -20 -46 -76 -196 -83 -224 -3 -8
-25 -69 -50 -135 -26 -66 -48 -127 -50 -135 -2 -8 -12 -35 -22 -60 -34 -79
-46 -135 -34 -158 6 -10 8 -21 6 -24 -3 -2 13 -21 34 -42 31 -30 49 -39 85
-43 42 -5 60 1 218 80 442 218 793 391 798 392 3 1 75 36 162 78 222 109 288
129 418 131 177 2 225 -12 476 -135 82 -40 151 -74 154 -74 5 -1 450 -220 807
-397 149 -74 167 -80 209 -75 36 4 54 13 85 43 21 21 37 39 35 42 -2 2 0 17 4
33 9 30 -14 119 -46 182 -8 15 -13 27 -10 27 2 0 -19 57 -46 128 -27 70 -51
134 -53 142 -6 23 -60 170 -80 215 -9 22 -18 45 -19 50 -4 19 -29 90 -35 100
-3 6 -6 12 -6 15 -1 8 -75 212 -87 240 -6 14 -12 30 -14 35 -4 18 -61 169 -78
210 -10 22 -19 47 -21 55 -2 8 -17 52 -34 98 -17 45 -44 117 -60 161 -16 43
-34 87 -39 97 -6 11 -9 21 -9 24 2 6 -41 124 -84 235 -7 17 -13 35 -15 40 -1
6 -17 48 -34 95 -18 47 -45 121 -61 165 -16 44 -32 87 -36 95 -3 8 -7 17 -7
20 -3 12 -78 217 -88 240 -6 14 -12 30 -14 35 -1 6 -17 48 -34 95 -18 47 -34
94 -37 105 -3 11 -10 25 -15 31 -5 7 -11 20 -13 30 -9 42 -59 170 -69 176 -6
4 -8 8 -4 8 7 0 -36 131 -53 164 -6 10 -12 26 -14 35 -2 9 -11 36 -20 61 -9
25 -25 68 -36 95 -10 28 -24 64 -30 80 -7 17 -13 35 -14 40 -2 6 -17 48 -35
95 -17 47 -45 121 -61 165 -16 44 -32 87 -36 95 -3 8 -7 17 -7 20 -3 12 -78
217 -88 240 -6 14 -12 30 -14 35 -1 6 -15 44 -29 85 -26 72 -79 145 -108 148
-7 1 -25 4 -42 7 -16 3 -37 1 -45 -4z"/>
</g>
</svg>
